<?xml version="1.0" encoding="iso-8859-1"?>
<!-- Generator: Adobe Illustrator 19.1.0, SVG Export Plug-In . SVG Version: 6.00 Build 0)  -->
<svg version="1.1" id="Capa_1" xmlns="http://www.w3.org/2000/svg" xmlns:xlink="http://www.w3.org/1999/xlink" x="0px" y="0px"
	 viewBox="0 0 450.142 450.142" style="enable-background:new 0 0 450.142 450.142;" xml:space="preserve">
<g>
	<g>
		<path d="M198.414,414.298c-1.233-1.233-2.258-2.156-3.125-4.156H52.571v-370h140v107.064c-1.054,6.432,1.092,12.973,5.75,17.531
			c0.052,0.052,0.104,0.104,0.156,0.156c0.093,0.084,0.187,0.026,0.281,0.108c4.549,4.353,10.882,6.14,17.094,5.14h106.719v135h40
			V153.675c1.195-7.266-1.698-14.601-7.531-19.094L228.321,7.862c-3.849-4.948-9.795-7.946-16.062-7.86
			c-0.932,0.029-1.862,0.14-2.781,0.14H32.571c-11.045,0-19.999,9.238-20,20.283v410c0.001,11.045,8.955,19.717,20,19.717h310
			c11.045,0,19.999-8.672,20-19.717v-10.283h-150C207.335,420.141,202.117,418,198.414,414.298L198.414,414.298z M232.571,68.706
			l61.719,61.436h-61.719L232.571,68.706L232.571,68.706z"/>
		<rect x="212.571" y="325.141" width="225" height="75"/>
	</g>
	<g>
	</g>
	<g>
	</g>
	<g>
	</g>
	<g>
	</g>
	<g>
	</g>
	<g>
	</g>
	<g>
	</g>
	<g>
	</g>
	<g>
	</g>
	<g>
	</g>
	<g>
	</g>
	<g>
	</g>
	<g>
	</g>
	<g>
	</g>
	<g>
	</g>
</g>
<g>
</g>
<g>
</g>
<g>
</g>
<g>
</g>
<g>
</g>
<g>
</g>
<g>
</g>
<g>
</g>
<g>
</g>
<g>
</g>
<g>
</g>
<g>
</g>
<g>
</g>
<g>
</g>
<g>
</g>
</svg>
